<svg xmlns="http://www.w3.org/2000/svg" width="85.913" height="73.854" viewBox="0 0 85.913 73.854">
  <g id="Group_9143" data-name="Group 9143" transform="translate(-0.25 -959.612)">
    <path id="Path_18092" data-name="Path 18092" d="M54.4,960.362a18.989,18.989,0,0,1,18.95,18.95c0,.423-.053.823-.081,1.238a17.114,17.114,0,0,1-9.394,31.493H45.79v7.429a6.979,6.979,0,0,1,3.8,3.768H72.142a6.891,6.891,0,1,1,0,5.168H49.586a6.878,6.878,0,0,1-12.759,0H14.27a6.891,6.891,0,1,1,0-5.168H36.827a6.979,6.979,0,0,1,3.8-3.768v-7.429H21.672a16.322,16.322,0,0,1-3.741-32.22,14.631,14.631,0,0,1,14.078-10.848,14.271,14.271,0,0,1,5.733,1.319A18.94,18.94,0,0,1,54.4,960.362Zm0,5.168a13.751,13.751,0,0,0-12.974,9.152,2.584,2.584,0,0,1-3.93,1.238,9.341,9.341,0,0,0-5.491-1.777,9.465,9.465,0,0,0-9.394,8.21,2.584,2.584,0,0,1-2.261,2.207,11.2,11.2,0,0,0,1.319,22.313H63.879a12.07,12.07,0,0,0,5.518-22.8,2.584,2.584,0,0,1-1.373-2.665,14.037,14.037,0,0,0,.162-2.1A13.743,13.743,0,0,0,54.4,965.528ZM78.522,1024.1a1.723,1.723,0,1,0,1.723,1.723A1.685,1.685,0,0,0,78.522,1024.1Zm-35.315,0a1.723,1.723,0,1,0,1.723,1.723A1.685,1.685,0,0,0,43.206,1024.1Zm-35.315,0a1.723,1.723,0,1,0,1.723,1.723A1.685,1.685,0,0,0,7.891,1024.1Z" fill="#29b965" stroke="#fff" stroke-width="1.5"/>
  </g>
</svg>
