<svg xmlns="http://www.w3.org/2000/svg" width="69.981" height="83.31" viewBox="0 0 69.981 83.31">
  <g id="Group_48" data-name="Group 48" transform="translate(-90 -50)">
    <g id="Group_47" data-name="Group 47" transform="translate(90 50)">
      <g id="Group_44" data-name="Group 44" transform="translate(0 0)">
        <path id="Path_492" data-name="Path 492" d="M91.666,133.31A1.666,1.666,0,0,1,90,131.644V51.666a1.666,1.666,0,0,1,3.332,0v79.978A1.666,1.666,0,0,1,91.666,133.31Z" transform="translate(-90 -50)" fill="#29b965"/>
      </g>
      <g id="Group_45" data-name="Group 45" transform="translate(0 3.332)">
        <path id="Path_493" data-name="Path 493" d="M121.658,106.657H91.666A1.666,1.666,0,0,1,90,104.99V71.666A1.666,1.666,0,0,1,91.666,70h39.989a1.666,1.666,0,0,1,1.178,2.844l-9.509,9.509V104.99A1.666,1.666,0,0,1,121.658,106.657Zm-28.326-3.332h26.659V81.663a1.666,1.666,0,0,1,.488-1.178l7.153-7.153h-34.3Z" transform="translate(-90 -70)" fill="#29b965"/>
      </g>
      <g id="Group_46" data-name="Group 46" transform="translate(29.992 13.33)">
        <path id="Path_494" data-name="Path 494" d="M308.323,166.657H271.666A1.666,1.666,0,0,1,270,164.99V131.666A1.666,1.666,0,0,1,271.666,130h36.657a1.666,1.666,0,0,1,1.067,2.946l-18.458,15.382,18.458,15.382a1.666,1.666,0,0,1-1.067,2.946Zm-34.99-3.332h30.388l-16.459-13.716a1.666,1.666,0,0,1,0-2.56l16.459-13.716H273.332Z" transform="translate(-270 -130)" fill="#29b965"/>
      </g>
    </g>
  </g>
</svg>
