<svg xmlns="http://www.w3.org/2000/svg" width="71.359" height="71.708" viewBox="0 0 71.359 71.708">
  <g id="noun_Data_secure_3627935" data-name="noun_Data secure_3627935" transform="translate(-6.956 -70)">
    <g id="Group_49" data-name="Group 49" transform="translate(6.956 70)">
      <path id="Path_495" data-name="Path 495" d="M412.03,644.97l-6.13-6.122,2.286-2.3,3.843,3.835,8.789-8.781,2.286,2.286Z" transform="translate(-378.827 -586.065)" fill="#29b965"/>
      <path id="Path_496" data-name="Path 496" d="M306.07,495.124l-7.922-4.005A18.672,18.672,0,0,1,287.9,474.457V461.768l2.392-.454A40.556,40.556,0,0,0,305.17,455.2l.9-.6.9.608a40.246,40.246,0,0,0,14.87,6.122l2.392.438v12.7a18.76,18.76,0,0,1-2.076,8.554,18.57,18.57,0,0,1-8.173,8.1Zm-14.927-30.673v10.013a15.436,15.436,0,0,0,8.473,13.759l6.462,3.26,6.454-3.26A15.447,15.447,0,0,0,321,474.465V464.451a43.273,43.273,0,0,1-14.919-5.976,44,44,0,0,1-6.8,3.519A43,43,0,0,1,291.143,464.451Z" transform="translate(-270.395 -423.416)" fill="#29b965"/>
      <path id="Path_497" data-name="Path 497" d="M139.378,131.3h-9.762v-3.243h9.762a.741.741,0,0,0,.738-.738V83.6a1.969,1.969,0,0,0-1.962-1.962H103.127A3.753,3.753,0,0,1,100.03,80l-4.435-6.535a.512.512,0,0,0-.422-.219H75.981a.734.734,0,0,0-.738.73v53.335a.741.741,0,0,0,.738.738h9.754v3.243H75.981A3.983,3.983,0,0,1,72,127.308V73.973A3.981,3.981,0,0,1,75.981,70H95.173a3.753,3.753,0,0,1,3.1,1.638l4.435,6.527a.512.512,0,0,0,.422.219h35.027a5.211,5.211,0,0,1,5.205,5.205v43.719A3.985,3.985,0,0,1,139.378,131.3Z" transform="translate(-72 -70)" fill="#29b965"/>
      <rect id="Rectangle_5" data-name="Rectangle 5" width="68.108" height="3.243" transform="translate(1.622 21.097)" fill="#29b965"/>
    </g>
  </g>
</svg>
