<svg id="noun_Time_6731" xmlns="http://www.w3.org/2000/svg" width="80.318" height="74.141" viewBox="0 0 80.318 74.141">
  <path id="Path_18093" data-name="Path 18093" d="M44.048.016C43.968.008,43.887,0,43.807,0a3.658,3.658,0,0,0-3.614,3.867c0,2.1.819,3.815,4.032,3.859v.012c15.26.209,28.608,13.244,28.608,29.242A29.547,29.547,0,0,1,43.462,66.415a29.135,29.135,0,0,1-29.3-26.873h6.791L10.477,22.119,0,39.543H6.425A36.99,36.99,0,1,0,44.048.016Z" fill="#fff"/>
  <path id="Path_18094" data-name="Path 18094" d="M54.706,21.615a3.357,3.357,0,0,0-3.276-3.381h-.708a3.33,3.33,0,0,0-3.244,3.381v19.44l-9.522,9.5a3.663,3.663,0,0,0,0,5.084,3.567,3.567,0,0,0,5.075,0L53.549,45.123c.08-.088.145-.177.225-.257a3.3,3.3,0,0,0,.931-2.305V21.615Z" transform="translate(-7.268 -3.589)" fill="#fff"/>
</svg>
