<svg id="Group_9211" data-name="Group 9211" xmlns="http://www.w3.org/2000/svg" width="73.291" height="73.291" viewBox="0 0 73.291 73.291">
  <g id="Group_9210" data-name="Group 9210">
    <path id="Path_18095" data-name="Path 18095" d="M13.7,16.841a3.054,3.054,0,0,0-4.319,4.319l7.686,7.686a3.054,3.054,0,0,0,4.7-.465L33.3,11.084A3.054,3.054,0,0,0,28.213,7.7l-9.465,14.2Z" transform="translate(17.422 13.012)" fill="#fff"/>
    <path id="Path_18096" data-name="Path 18096" d="M27.161,0A9.16,9.16,0,0,0,18,9.161V21.377a3.054,3.054,0,0,0,3.054,3.054H33.269a3.054,3.054,0,0,0,3.054-3.054V9.161A9.16,9.16,0,0,0,27.161,0Zm3.054,18.323H24.108V9.161a3.054,3.054,0,1,1,6.108,0Z" transform="translate(36.968)" fill="#fff"/>
    <path id="Path_18097" data-name="Path 18097" d="M27.161,0A9.16,9.16,0,0,0,18,9.161V21.377a3.054,3.054,0,0,0,3.054,3.054H33.269a3.054,3.054,0,0,0,3.054-3.054V9.161A9.16,9.16,0,0,0,27.161,0Zm3.054,18.323H24.108V9.161a3.054,3.054,0,1,1,6.108,0Z" transform="translate(36.968)" fill="#fff"/>
    <path id="Path_18098" data-name="Path 18098" d="M34.538,64.13a9.161,9.161,0,0,0,18.323,0V9.161a3.052,3.052,0,0,1,3.054-3.054V0H13.177A9.174,9.174,0,0,0,4,9.177V54.968a3.054,3.054,0,0,0,3.054,3.054H34.538ZM46.753,9.161V64.13a3.054,3.054,0,1,1-6.108,0V54.968a3.054,3.054,0,0,0-3.054-3.054H10.108V9.177a3.066,3.066,0,0,1,3.069-3.069h34.1A9.15,9.15,0,0,0,46.753,9.161Z" transform="translate(8.215)" fill="#fff"/>
    <path id="Path_18099" data-name="Path 18099" d="M48.861,29.215V20.063a3.054,3.054,0,0,0-3.053-3.054L3.054,17A3.054,3.054,0,0,0,0,20.054V29.53a8.846,8.846,0,0,0,8.847,8.847H51.915V32.269A3.052,3.052,0,0,1,48.861,29.215ZM8.847,32.269A2.738,2.738,0,0,1,6.108,29.53V23.108l36.646.008v6.1a9.15,9.15,0,0,0,.521,3.054Z" transform="translate(0 34.915)" fill="#fff"/>
    <path id="Path_18100" data-name="Path 18100" d="M19.054,28.135H20V22.027c.108,0,.142,0,.14,0-.126-.018-.126-.018-.38-.043h-.468c-.254.025-.254.025-.38.043,0,0,.033,0,.14,0Zm.947,0c4.072,0,4.072-6.108,0-6.108h-.947c-4.072,0-4.072,6.108,0,6.108a3.947,3.947,0,0,0,.473-.025A3.947,3.947,0,0,0,20,28.135Z" transform="translate(32.861 45.157)" fill="#fff"/>
  </g>
</svg>
