<svg xmlns="http://www.w3.org/2000/svg" width="83.946" height="83.946" viewBox="0 0 83.946 83.946">
  <g id="Group_9225" data-name="Group 9225" transform="translate(9285.021 -4055)">
    <path id="Path_18173" data-name="Path 18173" d="M57.56,10.278c3.524,8.309,13.75,15.111,28.107,18.7V47.973a37.695,37.695,0,0,1-75.39,0V28.978c14.357-3.589,24.584-10.391,28.107-18.7H57.56M59.888,7H36.058C33.763,15.752,22.439,23.045,7,26.372v21.6a40.973,40.973,0,1,0,81.946,0v-21.6C73.507,23.094,62.182,15.752,59.888,7Z" transform="translate(-9291.021 4049)" fill="#fff" stroke="#fff" stroke-width="2"/>
    <path id="Path_18175" data-name="Path 18175" d="M89.017,32Z" transform="translate(-9297.649 4064.973)" fill="#fff" stroke="#fff" stroke-width="2"/>
    <path id="Path_18176" data-name="Path 18176" d="M31.857,52.637,20.04,40.821l2.327-2.311L31.857,48,56.916,22.94l2.327,2.311Z" transform="translate(-9282.69 4059.184)" fill="#fff" stroke="#fff" stroke-width="2"/>
  </g>
</svg>
