<svg xmlns="http://www.w3.org/2000/svg" width="88" height="88" viewBox="0 0 88 88">
  <g id="Group_9212" data-name="Group 9212" transform="translate(-6 -958.362)">
    <path id="Path_18101" data-name="Path 18101" d="M20.813,958.364a2,2,0,0,0-1.094.469l-13,11A2,2,0,0,0,6,971.364v35a2,2,0,0,0,2,2H44a2,2,0,0,0,2-2v-46a2,2,0,0,0-2-2H21q-.094,0-.187,0Zm40.938,3.969a2,2,0,0,0-1.156.594l-8,8a2,2,0,0,0,0,2.844l8,8a2,2,0,1,0,2.813-2.844l-4.594-4.562H73v14a2,2,0,1,0,4,0v-16a2,2,0,0,0-2-2H58.813l4.594-4.594a2,2,0,0,0-1.656-3.437ZM23,962.364H42v42H10v-31H21a2,2,0,0,0,2-2Zm-4,2.281v4.719H13.438Zm.813,11.719a2,2,0,1,0,.188,4H32a2,2,0,1,0,0-4H20q-.094,0-.187,0Zm0,10a2,2,0,1,0,.188,4H32a2,2,0,1,0,0-4H20q-.094,0-.187,0Zm36,10a2,2,0,0,0-1.813,2v46a2,2,0,0,0,2,2H79a2,2,0,0,0,1.281-.5l13-11a2,2,0,0,0,.719-1.5v-35a2,2,0,0,0-2-2H56q-.094,0-.187,0Zm2.188,4H90v31H79q-.094,0-.187,0a2,2,0,0,0-1.812,2v9H58v-42Zm-33.219,13.968A2,2,0,0,0,23,1016.36v16a2,2,0,0,0,2,2H41.188l-4.594,4.562a2,2,0,1,0,2.813,2.844l8-8a2,2,0,0,0,0-2.844l-8-8a2,2,0,1,0-2.812,2.844l4.594,4.594H27v-14a2,2,0,0,0-2.219-2.031Zm43.031.031a2,2,0,1,0,.188,4H80a2,2,0,1,0,0-4H68q-.094,0-.187,0Zm0,10a2,2,0,1,0,.187,4H80a2,2,0,1,0,0-4H68q-.094,0-.187,0Zm13.188,11h5.531L81,1040.047Z" fill="#fff"/>
  </g>
</svg>
