<svg xmlns="http://www.w3.org/2000/svg" width="88.006" height="90.336" viewBox="0 0 88.006 90.336">
  <g id="Group_9213" data-name="Group 9213" transform="translate(173.76 -4116)">
    <path id="Path_18102" data-name="Path 18102" d="M23.335,30A47.718,47.718,0,0,0,9.4,31.843C3.536,33.686,2.31,36.369,2.31,38.295v5.152C2.31,45.346,3.536,48,9.4,49.9a47.718,47.718,0,0,0,13.964,1.843A47.718,47.718,0,0,0,37.326,49.9c5.862-1.843,7.088-4.526,7.088-6.452V38.295c0-1.9-1.226-4.553-7.088-6.452A47.718,47.718,0,0,0,23.335,30Zm16.48,8.351v5.033c-.166.332-1.29,1.383-4.609,2.323a44.99,44.99,0,0,1-11.872,1.438,44.989,44.989,0,0,1-11.863-1.475c-3.318-.922-4.443-1.991-4.609-2.323v-5c.166-.332,1.29-1.383,4.609-2.323a45,45,0,0,1,11.863-1.419,45,45,0,0,1,11.872,1.419C38.506,36.968,39.631,38.018,39.815,38.35Z" transform="translate(-176.005 4112.73)" fill="#fff"/>
    <path id="Path_18103" data-name="Path 18103" d="M2.277,59.25c0,1.9,1.226,4.553,7.088,6.452a47.718,47.718,0,0,0,13.964,1.843A47.718,47.718,0,0,0,37.293,65.7c5.862-1.843,7.088-4.526,7.088-6.452V56.014a2.3,2.3,0,0,0-4.609,0v3.18c-.166.332-1.29,1.383-4.609,2.323a44.989,44.989,0,0,1-11.853,1.429,44.989,44.989,0,0,1-11.853-1.429c-3.318-.922-4.443-1.991-4.609-2.323v-3.18a2.3,2.3,0,0,0-4.609,0Z" transform="translate(-176 4110.874)" fill="#fff"/>
    <path id="Path_18104" data-name="Path 18104" d="M2.277,74.38c0,1.9,1.226,4.544,7.088,6.452a47.718,47.718,0,0,0,13.964,1.843,47.717,47.717,0,0,0,13.964-1.843c5.862-1.843,7.088-4.526,7.088-6.452V71.144a2.3,2.3,0,0,0-4.609,0v3.18c-.166.332-1.29,1.383-4.609,2.323a44.99,44.99,0,0,1-11.853,1.429,44.99,44.99,0,0,1-11.853-1.429c-3.318-.922-4.443-1.991-4.609-2.323v-3.18a2.3,2.3,0,1,0-4.609,0Z" transform="translate(-176 4109.69)" fill="#fff"/>
    <path id="Path_18105" data-name="Path 18105" d="M94.144,53.425c0-1.9-1.226-4.544-7.088-6.452a47.718,47.718,0,0,0-13.964-1.843,47.718,47.718,0,0,0-13.964,1.843c-5.862,1.843-7.088,4.526-7.088,6.452v5.152c0,1.9,1.226,4.553,7.088,6.452a47.718,47.718,0,0,0,13.964,1.843,47.718,47.718,0,0,0,13.964-1.843c5.862-1.843,7.088-4.526,7.088-6.452Zm-4.609,5.088c-.166.332-1.29,1.383-4.609,2.323a45,45,0,0,1-11.853,1.429A45,45,0,0,1,61.22,60.845c-3.318-.922-4.443-1.991-4.609-2.323V53.48c.166-.332,1.29-1.383,4.609-2.323a45,45,0,0,1,11.853-1.429,45,45,0,0,1,11.853,1.429c3.318.922,4.443,1.991,4.609,2.323Z" transform="translate(-179.898 4111.546)" fill="#fff"/>
    <path id="Path_18106" data-name="Path 18106" d="M94.141,71.144a2.3,2.3,0,1,0-4.609,0v3.18c-.166.332-1.29,1.383-4.609,2.323a44.99,44.99,0,0,1-11.853,1.429,44.99,44.99,0,0,1-11.853-1.429c-3.318-.922-4.443-1.991-4.609-2.323v-3.18a2.3,2.3,0,1,0-4.609,0V74.38c0,1.9,1.226,4.544,7.088,6.452a47.718,47.718,0,0,0,13.964,1.843,47.718,47.718,0,0,0,13.964-1.843c5.862-1.843,7.088-4.526,7.088-6.452Z" transform="translate(-179.895 4109.69)" fill="#fff"/>
    <path id="Path_18107" data-name="Path 18107" d="M94.141,86.274a2.3,2.3,0,1,0-4.609,0v3.18c-.166.332-1.29,1.383-4.609,2.323a44.989,44.989,0,0,1-11.835,1.438,44.989,44.989,0,0,1-11.872-1.438c-3.318-.922-4.443-1.991-4.609-2.323v-3.18a2.3,2.3,0,1,0-4.609,0v3.254c0,1.9,1.226,4.553,7.088,6.452a47.718,47.718,0,0,0,13.964,1.843A47.718,47.718,0,0,0,87.026,95.98c5.862-1.843,7.088-4.526,7.088-6.452Z" transform="translate(-179.895 4108.505)" fill="#fff"/>
    <path id="Path_18108" data-name="Path 18108" d="M2.278,89.528c0,1.9,1.226,4.553,7.088,6.452a47.718,47.718,0,0,0,13.964,1.843A47.718,47.718,0,0,0,37.295,95.98c5.853-1.917,7.125-4.609,7.125-6.452V86.274a2.3,2.3,0,1,0-4.609,0v3.18c-.166.332-1.29,1.383-4.609,2.323a44.989,44.989,0,0,1-11.872,1.438,44.989,44.989,0,0,1-11.853-1.429c-3.318-.922-4.443-1.991-4.609-2.323V86.274a2.3,2.3,0,1,0-4.609,0Z" transform="translate(-176.002 4108.505)" fill="#fff"/>
    <path id="Path_18109" data-name="Path 18109" d="M80.9,2.548A4.95,4.95,0,0,0,77.307,1H69.933a5,5,0,0,0-5,5.162l.387,11.724H63.841a4.848,4.848,0,0,0-3.687,7.964h0L68.79,36.173a6.369,6.369,0,0,0,9.77,0l8.6-10.286a4.848,4.848,0,0,0-3.687-7.964H81.916L82.3,6.2a4.959,4.959,0,0,0-1.4-3.65Zm2.544,19.946a.267.267,0,0,1,.2.442L75,33.26a1.779,1.779,0,0,1-2.765,0L63.61,22.937h0a.267.267,0,0,1,.2-.442h3.9a2.3,2.3,0,0,0,2.35-2.369l-.5-14.093a.415.415,0,0,1,.406-.424h7.374a.406.406,0,0,1,.406.424l-.5,14.093a2.3,2.3,0,0,0,2.3,2.369Z" transform="translate(-180.444 4115)" fill="#fff"/>
  </g>
</svg>
