<svg xmlns="http://www.w3.org/2000/svg" width="96.124" height="92.39" viewBox="0 0 96.124 92.39">
  <g id="Group_9214" data-name="Group 9214" transform="translate(167 -4284)">
    <path id="Path_18110" data-name="Path 18110" d="M72.264,43.444c-.752,0-1.516-.032-2.312-.1a2,2,0,0,1-1.82-1.792,18.686,18.686,0,0,1,4.2-14.368c3.832-4.436,10.024-7.092,17.436-7.476A1.97,1.97,0,0,1,91.856,21.5a20.884,20.884,0,0,1-4.992,15.888c-3.592,3.96-8.636,6.056-14.6,6.056Zm-.24-4c5.012,0,9.024-1.584,11.892-4.752a16.555,16.555,0,0,0,4.056-10.828c-5.408.632-9.836,2.712-12.608,5.92A14.355,14.355,0,0,0,72.024,39.444Z" transform="translate(-166.936 4282.194)" fill="#fff"/>
    <path id="Path_18111" data-name="Path 18111" d="M49.036,38.168h0c-9.408,0-17.36-3.284-23.008-9.524-5.828-6.42-8.76-15.78-7.852-25.036a2.008,2.008,0,0,1,2.092-1.8c11.8.6,21.632,4.8,27.68,11.82C53.1,19.6,55.372,27.412,54.524,36.212A1.988,1.988,0,0,1,52.7,38C51.436,38.116,50.228,38.168,49.036,38.168ZM22.024,5.94a28.631,28.631,0,0,0,6.964,20.016c4.868,5.372,11.8,8.212,20.044,8.212h0c.532,0,1.08-.012,1.624-.036.32-6.984-1.652-13.144-5.744-17.892-5-5.8-13.072-9.42-22.888-10.3Z" transform="translate(-166.936 4282.194)" fill="#fff"/>
    <path id="Path_18112" data-name="Path 18112" d="M21.936,88.444h-20a2,2,0,0,1-2-2v-36a2,2,0,0,1,2-2h20a2,2,0,0,1,2,2v36A2,2,0,0,1,21.936,88.444Zm-18-4h16v-32h-16v32Z" transform="translate(-166.936 4282.194)" fill="#fff"/>
    <path id="Path_18113" data-name="Path 18113" d="M55.312,94.2c-6.864,0-15.364-4.016-22.2-7.244-4.044-1.908-8.228-3.884-9.928-3.884a2,2,0,1,1,0-4c2.6,0,6.588,1.884,11.636,4.26,6.468,3.064,14.52,6.864,20.488,6.864,11.78,0,36.752-14.9,36.752-19,0-3.456-1.46-5-4.752-5-1.04,0-3.78,2.248-5.784,3.884-4.388,3.584-9.344,7.684-14.144,6.288a2,2,0,0,1-1.416-2.276,3.164,3.164,0,0,0-.54-2.892c-2.116-2.444-8.944-2.2-12.616-2.068-.82.028-1.548.064-2.124.064-2.16,0-3.948-1.148-6.212-2.6-3.94-2.528-9.332-5.992-20.568-6.148a2,2,0,0,1,.028-4h.028c12.376.172,18.572,4.148,22.672,6.78,1.712,1.092,3.068,1.968,4.052,1.968.54,0,1.22-.032,1.98-.064,4.948-.172,12.412-.444,15.784,3.436a6.58,6.58,0,0,1,1.6,3.992c2.668-.452,6.088-3.256,8.944-5.588,3.268-2.672,5.852-4.776,8.316-4.776,5.56,0,8.752,3.272,8.752,9,0,8.484-30.056,23-40.748,23Z" transform="translate(-166.936 4282.194)" fill="#fff"/>
    <path id="Path_18114" data-name="Path 18114" d="M67.936,76.444h-28a2,2,0,0,1,0-4h28a2,2,0,0,1,0,4Z" transform="translate(-166.936 4282.194)" fill="#fff"/>
    <path id="Path_18115" data-name="Path 18115" d="M58.624,57.112a2,2,0,0,1-2-2c0-3.916-3.268-14.88-5.656-17.844a2,2,0,0,1,3.116-2.508c1.944,2.416,4.148,8.384,5.432,13.532A45.261,45.261,0,0,1,69,39.7a2,2,0,0,1,2.236,3.312c-4.1,2.776-10.616,8.524-10.616,12.1A1.992,1.992,0,0,1,58.624,57.112Z" transform="translate(-166.936 4282.194)" fill="#fff"/>
  </g>
</svg>
