<svg xmlns="http://www.w3.org/2000/svg" width="107" height="65.243" viewBox="0 0 107 65.243">
  <g id="Group_9215" data-name="Group 9215" transform="translate(300.5 -4503.5)">
    <path id="Path_18116" data-name="Path 18116" d="M71.515,19.7a32.121,32.121,0,1,0,32.121,32.121A32.121,32.121,0,0,0,71.515,19.7Zm0,59.96A27.839,27.839,0,1,1,99.354,51.818,27.87,27.87,0,0,1,71.515,79.657Z" transform="translate(-297.636 4484.303)" fill="#fff" stroke="#fff" stroke-width="1"/>
    <path id="Path_18117" data-name="Path 18117" d="M39.616,41.03a2.141,2.141,0,0,0-2.141-2.141H2.141a2.141,2.141,0,0,0,0,4.282H37.474A2.142,2.142,0,0,0,39.616,41.03Z" transform="translate(-300 4485.455)" fill="#fff" stroke="#fff" stroke-width="1"/>
    <path id="Path_18118" data-name="Path 18118" d="M39.132,52.141A2.141,2.141,0,0,0,36.99,50H10.222a2.141,2.141,0,0,0,0,4.282H36.99A2.141,2.141,0,0,0,39.132,52.141Z" transform="translate(-299.515 4486.122)" fill="#fff" stroke="#fff" stroke-width="1"/>
    <path id="Path_18119" data-name="Path 18119" d="M38.526,61.111h-18.2a2.141,2.141,0,0,0,0,4.282h18.2a2.141,2.141,0,0,0,0-4.282Z" transform="translate(-298.909 4486.788)" fill="#fff" stroke="#fff" stroke-width="1"/>
    <path id="Path_18120" data-name="Path 18120" d="M72.808,48.652V34.969a2.141,2.141,0,1,0-4.282,0V48.652a3.191,3.191,0,0,0-1.071,2.379c0,.057.014.11.017.166L54.162,64.506a2.141,2.141,0,1,0,3.027,3.028L70.5,54.225c.056,0,.109.017.166.017a3.2,3.2,0,0,0,2.141-5.59Z" transform="translate(-296.788 4485.091)" fill="#fff" stroke="#fff" stroke-width="1"/>
  </g>
</svg>
