<svg xmlns="http://www.w3.org/2000/svg" width="83.972" height="85.237" viewBox="0 0 83.972 85.237">
  <g id="Group_9216" data-name="Group 9216" transform="translate(-879.514 -4235.658)">
    <path id="Path_18121" data-name="Path 18121" d="M33.835,47.364A22.953,22.953,0,0,1,35.084,44.8q.184-.325.38-.644l-1.418-1.418a2.721,2.721,0,0,1,0-3.848l3.848-3.848a2.721,2.721,0,0,1,3.848,0l1.418,1.418q.32-.2.644-.38a23.122,23.122,0,0,1,5.241-2.171q.36-.1.724-.187V31.721A2.721,2.721,0,0,1,52.49,29h5.442a2.721,2.721,0,0,1,2.721,2.721v2.005q.364.088.724.187a23.109,23.109,0,0,1,5.241,2.171q.324.184.644.38l1.418-1.418a2.721,2.721,0,0,1,3.848,0l3.848,3.848a2.721,2.721,0,0,1,0,3.848L74.958,44.16q.2.32.38.644a23.115,23.115,0,0,1,2.171,5.24q.1.36.187.724H79.7a2.721,2.721,0,0,1,2.721,2.721v5.442A2.721,2.721,0,0,1,79.7,61.653H77.7q-.088.364-.187.724a23.111,23.111,0,0,1-2.171,5.241q-.184.324-.38.644l1.418,1.418a2.721,2.721,0,0,1,0,3.848l-3.848,3.848a2.721,2.721,0,0,1-3.848,0l-1.418-1.418q-.32.2-.644.38a23.114,23.114,0,0,1-5.241,2.171q-.36.1-.724.187V80.7a2.721,2.721,0,0,1-2.721,2.721H52.49A2.721,2.721,0,0,1,49.769,80.7V78.695q-.364-.088-.724-.187A23.122,23.122,0,0,1,43.8,76.337q-.324-.184-.644-.38l-1.418,1.418a2.721,2.721,0,0,1-3.848,0l-3.848-3.848a2.721,2.721,0,0,1,0-3.848l1.418-1.418q-.2-.32-.38-.644a23.123,23.123,0,0,1-2.171-5.241q-.1-.36-.187-.724H30.721A2.721,2.721,0,0,1,28,58.932V53.49a2.721,2.721,0,0,1,2.721-2.721h2.005q.088-.364.187-.724A22.953,22.953,0,0,1,33.835,47.364ZM52.49,31.721h5.442v4.148l2.083.5q.321.077.638.165v0a20.168,20.168,0,0,1,4.62,1.914h0q.286.162.568.335L67.671,39.9,70.6,36.97l3.848,3.848-2.933,2.933,1.117,1.828q.172.282.335.568h0a20.179,20.179,0,0,1,1.914,4.62h0q.088.317.165.638l.5,2.083H79.7v5.442H75.553l-.5,2.083q-.077.321-.165.638h0a20.171,20.171,0,0,1-1.914,4.62h0q-.162.286-.335.568L71.519,68.67,74.452,71.6,70.6,75.451l-2.933-2.933-1.828,1.117q-.282.172-.568.335h0a20.168,20.168,0,0,1-4.62,1.914v0q-.317.088-.638.165l-2.083.5V80.7H52.49V76.552l-2.083-.5q-.321-.077-.638-.165v0a20.186,20.186,0,0,1-4.62-1.914h0q-.286-.162-.568-.335l-1.828-1.117-2.933,2.933L35.97,71.6,38.9,68.67l-1.117-1.828q-.172-.282-.335-.568h0a20.176,20.176,0,0,1-1.914-4.62h0q-.088-.317-.165-.638l-.5-2.083H30.721V53.49h4.148l.5-2.083q.077-.321.165-.638h0a20.18,20.18,0,0,1,1.914-4.62h0q.162-.286.335-.568L38.9,43.751,35.97,40.818l3.848-3.848L42.751,39.9l1.828-1.118q.282-.172.568-.335h0a20.169,20.169,0,0,1,4.62-1.914v0q.317-.088.638-.165l2.083-.5Z" transform="translate(866.007 4222.981)" fill="#fff" stroke="#fff" stroke-width="1"/>
    <path id="Path_18122" data-name="Path 18122" d="M51.784,61.137a8.353,8.353,0,1,0-8.353-8.353A8.353,8.353,0,0,0,51.784,61.137Zm0,2.531A10.884,10.884,0,1,0,40.9,52.784,10.884,10.884,0,0,0,51.784,63.668Z" transform="translate(869.433 4226.408)" fill="#fff" stroke="#fff" stroke-width="1"/>
    <path id="Path_18123" data-name="Path 18123" d="M41.187,17.517a1.266,1.266,0,0,1,1.489-.993l9.492,1.9a1.266,1.266,0,0,1,.7,2.08l-6.019,6.8a1.266,1.266,0,0,1-1.9-1.677l3.092-3.494A41.737,41.737,0,0,0,21.442,51.6a1.266,1.266,0,0,1-2.461-.593,44.265,44.265,0,0,1,27.75-31.091l-4.552-.91A1.266,1.266,0,0,1,41.187,17.517Z" transform="translate(863.602 4219.661)" fill="#fff" stroke="#fff" stroke-width="1"/>
    <path id="Path_18124" data-name="Path 18124" d="M89.053,40.241a1.266,1.266,0,0,1,.993,1.489l-1.9,9.492a1.266,1.266,0,0,1-2.08.7l-6.8-6.019a1.266,1.266,0,0,1,1.677-1.9L84.436,47.1A41.737,41.737,0,0,0,54.969,20.5a1.266,1.266,0,1,1,.593-2.461,44.265,44.265,0,0,1,31.091,27.75l.91-4.552A1.266,1.266,0,0,1,89.053,40.241Z" transform="translate(872.913 4220.06)" fill="#fff" stroke="#fff" stroke-width="1"/>
    <path id="Path_18125" data-name="Path 18125" d="M65.445,89.606a1.266,1.266,0,0,1-1.489.993l-9.492-1.9a1.266,1.266,0,0,1-.7-2.08l6.019-6.8a1.266,1.266,0,0,1,1.9,1.677L58.587,84.99a41.737,41.737,0,0,0,26.6-29.467,1.266,1.266,0,1,1,2.461.593A44.265,44.265,0,0,1,59.9,87.207l4.552.91A1.266,1.266,0,0,1,65.445,89.606Z" transform="translate(872.766 4229.769)" fill="#fff" stroke="#fff" stroke-width="1"/>
    <path id="Path_18126" data-name="Path 18126" d="M17.964,66.5a1.266,1.266,0,0,1-.993-1.489l1.9-9.492a1.266,1.266,0,0,1,2.08-.7l6.8,6.019a1.266,1.266,0,1,1-1.677,1.9L22.58,59.641a41.737,41.737,0,0,0,29.467,26.6,1.266,1.266,0,0,1-.593,2.461,44.265,44.265,0,0,1-31.091-27.75l-.91,4.552A1.266,1.266,0,0,1,17.964,66.5Z" transform="translate(863.071 4229.754)" fill="#fff" stroke="#fff" stroke-width="1"/>
  </g>
</svg>
