<svg xmlns="http://www.w3.org/2000/svg" width="86.187" height="88.792" viewBox="0 0 86.187 88.792">
  <g id="Group_9217" data-name="Group 9217" transform="translate(-1481.979 -4230.935)">
    <path id="Path_18127" data-name="Path 18127" d="M16,68.614a6.42,6.42,0,0,0,10.954,4.543L41.781,58.329a15.728,15.728,0,1,0-9.075-9.076L17.878,64.081A6.366,6.366,0,0,0,16,68.614ZM47.338,33.251a10.466,10.466,0,1,1-6.069,18.934c-.1-.073-.2-.15-.3-.227a10.425,10.425,0,0,1-.927-.8L39.88,51a10.448,10.448,0,0,1-.8-.932c-.076-.1-.149-.2-.221-.3a10.438,10.438,0,0,1,8.484-16.522ZM21.572,67.774,35.448,53.9c.076.089.168.159.245.245a15.8,15.8,0,0,0,1.192,1.193c.087.078.161.174.251.251L23.261,69.463a1.195,1.195,0,0,1-1.69-1.69Z" transform="translate(1477.731 4227.717)" fill="#fff"/>
    <path id="Path_18128" data-name="Path 18128" d="M40.612,49.669a2.612,2.612,0,0,0,2.612-2.612V36.612a2.612,2.612,0,0,0-5.223,0V47.058A2.612,2.612,0,0,0,40.612,49.669Z" transform="translate(1484.458 4229.579)" fill="#fff"/>
    <path id="Path_18129" data-name="Path 18129" d="M44.867,9H9.612a2.612,2.612,0,0,0,0,5.223H44.867a2.612,2.612,0,0,1,2.612,2.612V28.586a2.612,2.612,0,1,0,5.223,0V16.835A7.844,7.844,0,0,0,44.867,9Z" transform="translate(1474.979 4221.935)" fill="#fff"/>
    <path id="Path_18130" data-name="Path 18130" d="M83.651,73.078a2.532,2.532,0,0,0-.08-.276c-.022-.071-.038-.142-.065-.212a2.58,2.58,0,0,0-.157-.3c-.029-.051-.051-.1-.084-.153a2.619,2.619,0,0,0-.333-.406L75.1,63.9A2.611,2.611,0,1,0,71.4,67.593l3.381,3.382H45.835a2.612,2.612,0,0,1-2.612-2.612V56.612a2.612,2.612,0,0,0-5.223,0V68.363A7.844,7.844,0,0,0,45.835,76.2H74.786l-3.377,3.377A2.611,2.611,0,1,0,75.1,83.268l7.834-7.835a2.619,2.619,0,0,0,.333-.406c.033-.05.054-.1.084-.153a2.58,2.58,0,0,0,.157-.3c.029-.069.043-.141.065-.212a2.534,2.534,0,0,0,.082-.276,2.6,2.6,0,0,0,.038-.38c0-.043.013-.085.013-.131s-.01-.085-.013-.131a2.6,2.6,0,0,0-.044-.37Z" transform="translate(1484.458 4235.694)" fill="#fff"/>
  </g>
</svg>
