<svg xmlns="http://www.w3.org/2000/svg" width="78.34" height="78.426" viewBox="0 0 78.34 78.426">
  <g id="Group_40" data-name="Group 40" transform="translate(1121.347 732.661)">
    <path id="Path_469" data-name="Path 469" d="M-1053.557-669.5h4.711c0,3.4.2,6.769-.075,10.1-.163,1.978-1.872,3.28-3.663,3.907a3.26,3.26,0,0,1-2.688-.836c-3.721-3.606-4.318-2.581-7.047.1-1.294,1.27-2.439,1.258-3.808.078-3.505-3.022-3.505-3.022-6.918-.033-1.4,1.228-2.569,1.2-3.953-.094-3.382-3.161-3.382-3.161-6.71-.019-1.433,1.352-2.726,1.473-4.043.008-2.461-2.736-3.654-3.413-6.867.019-1.344,1.435-2.534,1.246-4.067-.04a7.018,7.018,0,0,1-2.668-6.029c.158-4.979.076-9.967.093-14.951,0-.574,0-1.148,0-1.88-2.936,0-5.708-.006-8.48,0-1.715.005-3.429.055-5.143.045-3.6-.022-5.452-1.869-5.456-5.446q-.015-13.908,0-27.816c0-4.663-.011-9.326,0-13.989.011-3.443,1.828-5.279,5.247-5.281q18.651-.014,37.3,0,5.087,0,5.155,5.159c.036,2.94.007,5.881.007,9,.66.035,1.223.091,1.786.091,5.52.006,11.041,0,16.561.007,3.552.008,5.449,1.612,5.513,5.042.114,6.108.032,12.219.025,18.328a2.424,2.424,0,0,1-.158.548h-4.59v-19.03h-42.991v1.441q0,24.038.019,48.075a7.3,7.3,0,0,0,.442,1.743,6.659,6.659,0,0,0,1.5-1c2.826-3.282,4.019-3.462,6.8-.118,1.392,1.674,2.709,1.6,4.22.056.225-.229.429-.479.647-.714,2.257-2.431,3.2-2.421,5.444.056,2.159,2.385,3.159,2.4,5.335.095.367-.39.715-.8,1.11-1.161a2.4,2.4,0,0,1,3.459-.018,12.335,12.335,0,0,1,.872.94c2.381,2.586,3.3,2.578,5.648-.049,2.047-2.287,3.247-2.251,5.148.156a3.753,3.753,0,0,0,.5.628c.391.318.823.588,1.238.878a5.394,5.394,0,0,0,.518-1.516C-1053.523-665.149-1053.557-667.283-1053.557-669.5Zm-57.281-14.548c0-1.294,0-2.416,0-3.538-.016-8.092-.125-16.185-.01-24.276.059-4.079,1.788-5.536,5.847-5.538q12.784-.006,25.568,0h1.828v-9.4h-37.921v42.756Zm4.875-28.52v28.511h4.547v-28.511Z" transform="translate(0 0)" fill="#29b965" stroke="#fff" stroke-width="2"/>
    <path id="Path_470" data-name="Path 470" d="M-961.16-596.467c1.783,1.74,3.234,3.132,4.657,4.553,1.308,1.307,1.464,2.6.493,3.668-1.009,1.112-2.479,1.064-3.8-.235q-4.13-4.053-8.185-8.184c-1.35-1.376-1.33-2.53.024-3.9q4.067-4.116,8.187-8.181c1.234-1.216,2.7-1.314,3.7-.336,1.024,1,.927,2.428-.3,3.68-1.264,1.285-2.567,2.532-4.115,4.052.9.049,1.406.1,1.911.1,4.769.006,9.538,0,14.307.008,1.922,0,2.958.871,2.951,2.405s-1.035,2.364-2.97,2.366q-7.395.01-14.79,0Z" transform="translate(-102.671 -82.705)" fill="#29b965" stroke="#fff" stroke-width="2"/>
    <path id="Path_471" data-name="Path 471" d="M-1014.575-652.706c-4.549,0-9.1.007-13.647,0-2,0-3.095-.909-3.053-2.471.039-1.486,1.1-2.3,3.039-2.3q13.646-.006,27.293,0c1.973,0,3.143.938,3.087,2.447-.055,1.449-1.191,2.325-3.072,2.328Q-1007.751-652.7-1014.575-652.706Z" transform="translate(-60.425 -50.319)" fill="#29b965" stroke="#fff" stroke-width="2"/>
    <path id="Path_472" data-name="Path 472" d="M-1019.15-627.66c2.894,0,5.788-.013,8.682,0,1.874.011,3.07.953,3.054,2.35-.015,1.312-1.169,2.335-2.942,2.348q-9,.067-18.006,0c-1.777-.013-2.894-1.045-2.876-2.392.018-1.376,1.136-2.288,2.923-2.3C-1025.259-627.678-1022.2-627.66-1019.15-627.66Z" transform="translate(-60.451 -70.547)" fill="#29b965" stroke="#fff" stroke-width="2"/>
    <path id="Path_473" data-name="Path 473" d="M-1024.17-568.5c1.551,0,3.1-.043,4.651.01a2.318,2.318,0,0,1,2.5,2.35,2.289,2.289,0,0,1-2.42,2.431q-4.729.1-9.461-.008a2.331,2.331,0,0,1-2.356-2.5,2.357,2.357,0,0,1,2.437-2.264C-1027.272-568.544-1025.72-568.5-1024.17-568.5Z" transform="translate(-60.436 -110.674)" fill="#29b965" stroke="#fff" stroke-width="2"/>
    <path id="Path_474" data-name="Path 474" d="M-1024.211-593.4c-1.441,0-2.884.05-4.322-.011a2.566,2.566,0,0,1-2.725-2.19,2.294,2.294,0,0,1,2.4-2.455c3.137-.143,6.289-.147,9.426-.008a2.258,2.258,0,0,1,2.4,2.45,2.519,2.519,0,0,1-2.7,2.2C-1021.22-593.355-1022.717-593.4-1024.211-593.4Z" transform="translate(-60.432 -90.557)" fill="#29b965" stroke="#fff" stroke-width="2"/>
  </g>
</svg>
