<svg id="Group_41" data-name="Group 41" xmlns="http://www.w3.org/2000/svg" width="62.476" height="68.498" viewBox="0 0 62.476 68.498">
  <path id="Path_475" data-name="Path 475" d="M15.567,4.451c4.235,0,8.471.006,12.706,0,1.86,0,2.881-.847,2.843-2.3C31.08.763,30.093,0,28.287,0Q15.581,0,2.875,0C1.038,0-.051.876,0,2.281.052,3.63,1.11,4.445,2.862,4.448Q9.214,4.459,15.567,4.451Z" transform="translate(54.868 55.639) rotate(180)" fill="#29b965"/>
  <path id="Path_476" data-name="Path 476" d="M10.927.006c-2.694,0-5.389-.012-8.083,0C1.1.02-.015.9,0,2.2.014,3.419,1.088,4.371,2.739,4.383q8.382.062,16.765,0c1.654-.013,2.694-.973,2.677-2.227C22.164.874,21.123.025,19.459.012,16.615-.011,13.771.006,10.927.006Z" transform="translate(45.944 46.709) rotate(180)" fill="#29b965"/>
  <path id="Path_477" data-name="Path 477" d="M6.657.016c-1.443,0-2.888-.04-4.33.009A2.159,2.159,0,0,0,0,2.213,2.131,2.131,0,0,0,2.253,4.476q4.4.094,8.809-.008a2.169,2.169,0,0,0,2.193-2.329A2.194,2.194,0,0,0,10.987.031C9.546-.027,8.1.018,6.657.016Z" transform="translate(37.013 28.996) rotate(180)" fill="#29b965"/>
  <path id="Path_478" data-name="Path 478" d="M6.693,4.438c1.342,0,2.685.046,4.024-.011a2.389,2.389,0,0,0,2.537-2.039A2.136,2.136,0,0,0,11.017.1C8.1-.031,5.161-.035,2.24.095A2.1,2.1,0,0,0,.005,2.377,2.345,2.345,0,0,0,2.519,4.424C3.908,4.482,5.3,4.437,6.693,4.438Z" transform="translate(37.014 37.876) rotate(180)" fill="#29b965"/>
  <path id="Path_479" data-name="Path 479" d="M-767.207-714.834v49.177a1.433,1.433,0,0,0,1.433,1.433h.909a1.433,1.433,0,0,0,1.433-1.433v-46.275A1.433,1.433,0,0,1-762-713.366h36.767A1.433,1.433,0,0,0-723.8-714.8v-.035a1.433,1.433,0,0,0-1.433-1.433h-40.542A1.433,1.433,0,0,0-767.207-714.834Z" transform="translate(767.207 716.267)" fill="#29b965"/>
  <path id="Path_480" data-name="Path 480" d="M-836.238-610.368h41.663a.835.835,0,0,0,.835-.835v-50.334a.835.835,0,0,0-.835-.835h-41.663a.835.835,0,0,0-.835.835V-611.2A.835.835,0,0,0-836.238-610.368Z" transform="translate(854.715 677.365)" fill="none" stroke="#29b965" stroke-width="3"/>
  <path id="Path_482" data-name="Path 482" d="M-785.043-648.985v-46.277a1.433,1.433,0,0,1,1.433-1.433H-746.9a1.433,1.433,0,0,0,1.433-1.433h0a1.433,1.433,0,0,0-1.433-1.433h-40.457a1.433,1.433,0,0,0-1.433,1.433v49.143a1.433,1.433,0,0,0,1.433,1.433h.879A1.433,1.433,0,0,0-785.043-648.985Z" transform="translate(796.424 705.405)" fill="#29b965"/>
</svg>
