<svg xmlns="http://www.w3.org/2000/svg" width="46.557" height="84.668" viewBox="0 0 46.557 84.668">
  <g id="Group_9354" data-name="Group 9354" transform="translate(-989.205 -2667.03)">
    <path id="Path_483" data-name="Path 483" d="M55.473,2H20.083A4.1,4.1,0,0,0,16,6.083v73.5a4.1,4.1,0,0,0,4.083,4.083h35.39a4.1,4.1,0,0,0,4.083-4.083V6.083A4.1,4.1,0,0,0,55.473,2Zm-24.5,6.806H44.584a1.361,1.361,0,0,1,0,2.722H30.973a1.361,1.361,0,1,1,0-2.722Zm6.806,70.779A4.083,4.083,0,1,1,41.862,75.5,4.083,4.083,0,0,1,37.778,79.585Z" transform="translate(974.705 2666.53)" fill="none" stroke="#29b965" stroke-width="3"/>
    <path id="Path_18782" data-name="Path 18782" d="M50.484,55.772V50.328a1.361,1.361,0,0,0-1.361-1.361H43.678a1.361,1.361,0,0,0-1.361,1.361v5.445a1.361,1.361,0,0,0,1.361,1.361h5.445A1.361,1.361,0,0,0,50.484,55.772Zm-2.722-1.361H45.039V51.689h2.722ZM43.678,40.8h5.445a1.361,1.361,0,0,0,1.361-1.361V33.994a1.361,1.361,0,0,0-1.361-1.361H43.678a1.361,1.361,0,0,0-1.361,1.361v5.445A1.361,1.361,0,0,0,43.678,40.8Zm1.361-5.445h2.722v2.722H45.039ZM25.983,33.994v5.445A1.361,1.361,0,0,0,27.344,40.8h5.445a1.361,1.361,0,0,0,1.361-1.361V33.994a1.361,1.361,0,0,0-1.361-1.361H27.344A1.361,1.361,0,0,0,25.983,33.994Zm2.722,1.361h2.722v2.722Zm13.611,8.167h6.806a1.361,1.361,0,1,1,0,2.722H42.317a1.361,1.361,0,1,1,0-2.722ZM27.344,46.244a1.361,1.361,0,1,1,0-2.722h2.722a1.361,1.361,0,1,1,0,2.722ZM49.123,28.549h4.083a1.361,1.361,0,0,1,1.361,1.361v4.083a1.361,1.361,0,1,1-2.722,0V31.272H49.123a1.361,1.361,0,1,1,0-2.722Zm5.445,27.223v4.083a1.361,1.361,0,0,1-1.361,1.361H49.123a1.361,1.361,0,0,1,0-2.722h2.722V55.772a1.361,1.361,0,1,1,2.722,0ZM21.9,59.856V55.772a1.361,1.361,0,0,1,2.722,0v2.722h2.722a1.361,1.361,0,0,1,0,2.722H23.261A1.361,1.361,0,0,1,21.9,59.856Zm0-25.862V29.911a1.361,1.361,0,0,1,1.361-1.361h4.083a1.361,1.361,0,1,1,0,2.722H24.622v2.722a1.361,1.361,0,1,1-2.722,0ZM39.595,48.967v6.806a1.361,1.361,0,1,1-2.722,0V48.967a1.361,1.361,0,1,1,2.722,0ZM34.15,43.522h2.722V33.994a1.361,1.361,0,1,1,2.722,0V44.883a1.361,1.361,0,0,1-1.361,1.361H34.15a1.361,1.361,0,1,1,0-2.722Zm-1.361,5.445H27.344a1.361,1.361,0,0,0-1.361,1.361v5.445a1.361,1.361,0,0,0,1.361,1.361h5.445a1.361,1.361,0,0,0,1.361-1.361V50.328A1.361,1.361,0,0,0,32.789,48.967Zm-1.361,5.445H28.706V51.689h2.722Z" transform="translate(974.249 2663.559)" fill="#29b965"/>
  </g>
</svg>
