<svg xmlns="http://www.w3.org/2000/svg" width="68.614" height="68.62" viewBox="0 0 68.614 68.62">
  <g id="Group_42" data-name="Group 42" transform="translate(56.27 -145.929)">
    <path id="Path_484" data-name="Path 484" d="M62.526,200.836l19.147-50.275a2.663,2.663,0,0,0-.6-2.813,2.632,2.632,0,0,0-2.813-.6L27.988,166.3a2.64,2.64,0,0,0,.159,4.989l22.384,7.006,6.993,22.384a2.692,2.692,0,0,0,.65,1.075,2.664,2.664,0,0,0,4.352-.916Zm-6.887-23.91L65.9,166.669a2.646,2.646,0,0,0-3.742-3.742L51.9,173.184,37,168.527,74.614,154.2l-14.33,37.617Z" transform="translate(-70.545 0)" fill="#29b965" stroke="#fff" stroke-width="2"/>
    <path id="Path_485" data-name="Path 485" d="M-41.8,392.026a2.643,2.643,0,0,0-3.742,0l-8.731,8.718a2.643,2.643,0,0,0,0,3.742,2.643,2.643,0,0,0,3.742,0l8.731-8.731A2.627,2.627,0,0,0-41.8,392.026Z" transform="translate(0 -211.863)" fill="#29b965" stroke="#fff" stroke-width="2"/>
    <path id="Path_486" data-name="Path 486" d="M108.386,542.126a2.643,2.643,0,0,0-3.742,0l-8.718,8.731a2.646,2.646,0,0,0,3.742,3.742l8.731-8.731A2.655,2.655,0,0,0,108.386,542.126Z" transform="translate(-130.27 -342.046)" fill="#29b965" stroke="#fff" stroke-width="2"/>
    <path id="Path_487" data-name="Path 487" d="M39.111,423.226a2.643,2.643,0,0,0-3.742,0L20.826,437.769a2.646,2.646,0,1,0,3.742,3.742l14.556-14.556A2.639,2.639,0,0,0,39.111,423.226Z" transform="translate(-65.135 -238.923)" fill="#29b965" stroke="#fff" stroke-width="2"/>
  </g>
</svg>
