<svg xmlns="http://www.w3.org/2000/svg" width="68.829" height="72.027" viewBox="0 0 68.829 72.027">
  <g id="Group_9374" data-name="Group 9374" transform="translate(-977.205 -2795.5)">
    <path id="Path_18789" data-name="Path 18789" d="M59.753,32H32.386a1.186,1.186,0,1,0,0,2.373H59.674a1.216,1.216,0,0,0,1.186-1.186A1.149,1.149,0,0,0,59.753,32Z" transform="translate(955.363 2785.276)" fill="#29b965" stroke="#29b965" stroke-width="1"/>
    <path id="Path_18790" data-name="Path 18790" d="M59.753,48H32.386a1.186,1.186,0,1,0,0,2.373H59.674a1.216,1.216,0,0,0,1.186-1.186A1.1,1.1,0,0,0,59.753,48Z" transform="translate(955.363 2781.932)" fill="#29b965" stroke="#29b965" stroke-width="1"/>
    <path id="Path_18791" data-name="Path 18791" d="M59.753,63H32.386a1.186,1.186,0,1,0,0,2.373H59.674a1.216,1.216,0,0,0,1.186-1.186A1.149,1.149,0,0,0,59.753,63Z" transform="translate(955.363 2778.796)" fill="#29b965" stroke="#29b965" stroke-width="1"/>
    <g id="Group_9360" data-name="Group 9360" transform="translate(977.705 2796)">
      <path id="Path_18792" data-name="Path 18792" d="M53.932,76.127A4.055,4.055,0,0,1,51.242,75.1l-1.9-1.819a1.34,1.34,0,0,0-1.819,0L45.548,75.1a3.4,3.4,0,0,1-2.452.949,3.5,3.5,0,0,1-2.61-1.186L39.062,73.28A1.219,1.219,0,0,0,37.4,73.2l-2.056,1.9a3.731,3.731,0,0,1-2.531.949,3.592,3.592,0,0,1-2.531-.949l-2.056-1.9a1.659,1.659,0,0,0-1.977-.079L23.8,75.178a2.752,2.752,0,0,1-1.74.712A2.162,2.162,0,0,1,20,73.438V7.71c0-1.74,1.028-2.452,2.056-2.452a2.752,2.752,0,0,1,1.74.712l2.531,2.056a1.78,1.78,0,0,0,2.136,0l2.61-2.056a3.709,3.709,0,0,1,2.452-.87,4.056,4.056,0,0,1,2.689,1.028l1.9,1.819a1.34,1.34,0,0,0,1.819,0l1.977-1.819a3.4,3.4,0,0,1,2.452-.949,3.5,3.5,0,0,1,2.61,1.186L48.4,7.947a1.219,1.219,0,0,0,1.661.079l2.056-1.9a3.731,3.731,0,0,1,2.531-.949,3.592,3.592,0,0,1,2.531.949l2.056,1.9a1.659,1.659,0,0,0,1.977.079L63.66,6.049a2.752,2.752,0,0,1,1.74-.712,2.162,2.162,0,0,1,2.056,2.452V73.6c0,1.74-1.028,2.452-2.056,2.452a2.752,2.752,0,0,1-1.74-.712L61.129,73.28a1.78,1.78,0,0,0-2.136,0l-2.61,1.977A4.034,4.034,0,0,1,53.932,76.127Zm-5.458-5.616a3.659,3.659,0,0,1,2.531,1.028l1.9,1.819a1.659,1.659,0,0,0,1.977.079L57.412,71.3a4.148,4.148,0,0,1,2.61-.87,4.315,4.315,0,0,1,2.61.87l2.373,1.977V7.868L62.711,9.846a4.034,4.034,0,0,1-2.452.87,3.854,3.854,0,0,1-2.61-1.028l-2.056-1.9a1.443,1.443,0,0,0-1.9,0L51.559,9.767a3.349,3.349,0,0,1-2.373.949,3.266,3.266,0,0,1-2.61-1.186L45.152,7.947a1.125,1.125,0,0,0-1.582-.079L41.593,9.688a3.809,3.809,0,0,1-2.531,1.028,3.659,3.659,0,0,1-2.531-1.028l-1.9-1.819a1.659,1.659,0,0,0-1.977-.079L30.124,9.925a4.087,4.087,0,0,1-2.531.87,4.315,4.315,0,0,1-2.61-.87L22.61,7.947V73.359L24.9,71.382a4.034,4.034,0,0,1,2.452-.87,3.854,3.854,0,0,1,2.61,1.028l2.056,1.9a1.443,1.443,0,0,0,1.9,0l2.056-1.9a3.349,3.349,0,0,1,2.373-.949,3.266,3.266,0,0,1,2.61,1.186l1.424,1.582a1.125,1.125,0,0,0,1.582.079l1.977-1.819A3.412,3.412,0,0,1,48.474,70.512Z" transform="translate(-20 -5.1)" fill="#29b965" stroke="#29b965" stroke-width="1"/>
    </g>
    <rect id="Rectangle_9558" data-name="Rectangle 9558" width="33.874" height="44.802" transform="translate(1004.737 2811.764)" fill="#fff"/>
    <g id="Group_9359" data-name="Group 9359" transform="translate(1010.135 2816.277)">
      <path id="Path_18783" data-name="Path 18783" d="M3.294,11.449H9.611v2.8a.718.718,0,0,0,.719.719h4.653a.718.718,0,0,0,.719-.719V5.019a.718.718,0,0,0-.719-.719H10.368a.718.718,0,0,0-.719.719v2.8H3.294a.8.8,0,0,0-.794.794v2A.808.808,0,0,0,3.294,11.449Z" transform="translate(-2.5 -4.3)" fill="#29b965"/>
      <path id="Path_18784" data-name="Path 18784" d="M63.131,13.6H43.5v3.631H63.094a.8.8,0,0,0,.794-.794v-2A.757.757,0,0,0,63.131,13.6Z" transform="translate(-27.992 -10.082)" fill="#29b965"/>
      <path id="Path_18785" data-name="Path 18785" d="M83.773,45.2H76.7v3.631h7.036a.8.8,0,0,0,.794-.794v-2A.757.757,0,0,0,83.773,45.2Z" transform="translate(-48.634 -29.729)" fill="#29b965"/>
      <path id="Path_18786" data-name="Path 18786" d="M3.294,43.049H22.169v2.8a.718.718,0,0,0,.719.719H27.54a.718.718,0,0,0,.719-.719V36.619a.718.718,0,0,0-.719-.719H22.926a.718.718,0,0,0-.719.719v2.8H3.294a.8.8,0,0,0-.794.794v2A.808.808,0,0,0,3.294,43.049Z" transform="translate(-2.5 -23.947)" fill="#29b965"/>
      <path id="Path_18787" data-name="Path 18787" d="M63.131,76.8H43.5v3.631H63.094a.8.8,0,0,0,.794-.794v-2A.778.778,0,0,0,63.131,76.8Z" transform="translate(-27.992 -49.376)" fill="#29b965"/>
      <path id="Path_18788" data-name="Path 18788" d="M14.982,67.5H10.368a.718.718,0,0,0-.719.719v2.8H3.294a.8.8,0,0,0-.794.794v2a.8.8,0,0,0,.794.794H9.611v2.8a.718.718,0,0,0,.719.719h4.653a.718.718,0,0,0,.719-.719V68.219A.7.7,0,0,0,14.982,67.5Z" transform="translate(-2.5 -43.594)" fill="#29b965"/>
    </g>
  </g>
</svg>
