<svg xmlns="http://www.w3.org/2000/svg" width="65.269" height="58.321" viewBox="0 0 65.269 58.321">
  <g id="Group_9361" data-name="Group 9361" transform="translate(-798.559 -3174.5)">
    <path id="Path_18793" data-name="Path 18793" d="M72.858,37.28H54.98a1.317,1.317,0,0,0-.938.387L50.9,40.8H35.522l-3.111-3.136a1.317,1.317,0,0,0-.938-.387H13.562a2.469,2.469,0,0,0-1.761.733,2.576,2.576,0,0,0-.741,1.868l2.354,33.508a2.519,2.519,0,0,0,2.469,2.469H70.5a2.469,2.469,0,0,0,2.469-2.469L75.327,39.8a2.469,2.469,0,0,0-2.469-2.519ZM70.389,72.838a.362.362,0,0,1-.362.329H16.319a.288.288,0,0,1-.28-.263l-2.3-32.71a.241.241,0,0,1,.247-.263h16.9l3.169,3.136a1.333,1.333,0,0,0,.938.387H51.457a1.342,1.342,0,0,0,.938-.387L55.54,39.93H72.249a.412.412,0,0,1,.3.132.4.4,0,0,1,.107.313Z" transform="translate(788 3156.462)" fill="#29b965" stroke="#29b965" stroke-width="1"/>
    <path id="Path_18794" data-name="Path 18794" d="M17.755,33.367h.074A1.193,1.193,0,0,0,18.949,32.1l-.3-3.918H69.05l-.321,3.934a1.177,1.177,0,0,0,.3.823,1.226,1.226,0,0,0,.889.4A1.185,1.185,0,0,0,71.1,32.231l.321-4.222a2.239,2.239,0,0,0-2.239-2.239H18.521a2.214,2.214,0,0,0-1.572.65,2.3,2.3,0,0,0-.658,1.646l.321,4.115A1.185,1.185,0,0,0,17.755,33.367Z" transform="translate(787.075 3158.498)" fill="#29b965" stroke="#29b965" stroke-width="1"/>
    <path id="Path_18795" data-name="Path 18795" d="M20.457,21.5h.066a1.193,1.193,0,0,0,1.119-1.268l-.272-3.35H67.282l-.272,3.358A1.21,1.21,0,0,0,68.2,21.5a1.193,1.193,0,0,0,1.185-1.111l.3-3.745a2.148,2.148,0,0,0-2.124-2.132H21.115a2.124,2.124,0,0,0-1.514.626,2.206,2.206,0,0,0-.6,1.6l.288,3.655A1.193,1.193,0,0,0,20.457,21.5Z" transform="translate(786.596 3160.49)" fill="#29b965" stroke="#29b965" stroke-width="1"/>
    <path id="Path_18796" data-name="Path 18796" d="M55.283,60.154H49.6V54.475a1.235,1.235,0,1,0-2.469,0v5.679H41.455a1.235,1.235,0,0,0,0,2.469h5.679V68.3a1.235,1.235,0,1,0,2.469,0V62.59h5.679a1.235,1.235,0,1,0,0-2.469Z" transform="translate(782.841 3153.639)" fill="#29b965" stroke="#29b965" stroke-width="1"/>
  </g>
</svg>
