<svg xmlns="http://www.w3.org/2000/svg" width="72.065" height="72.11" viewBox="0 0 72.065 72.11">
  <g id="Group_9362" data-name="Group 9362" transform="translate(-654.027 -3307)">
    <path id="Path_18797" data-name="Path 18797" d="M1.824,66.675a5.584,5.584,0,0,1-.508-4.65A107.42,107.42,0,0,0,5.37,45.92a5.606,5.606,0,0,1,7.291-4.363l1.92.618a6.968,6.968,0,0,1,0-3.4A7.115,7.115,0,0,1,28.6,40.46a7,7,0,0,1-1.839,4.79c2.207.419,4.311.736,6.364,1.023a1.833,1.833,0,1,1-.478,3.635c-2.656-.338-5.43-.809-8.255-1.391a1.832,1.832,0,0,1-.67-.287,3,3,0,0,1-1.2-3.186l.059-.243a3.024,3.024,0,0,1,1.052-1.619,3.362,3.362,0,0,0,1.31-2.722,3.451,3.451,0,0,0-6.806-.795,3.384,3.384,0,0,0,.177,2.148,3.031,3.031,0,0,1,.162,1.928l-.059.243a3,3,0,0,1-2.568,2.207,1.832,1.832,0,0,1-.736-.066c-1.229-.368-2.443-.736-3.613-1.14a1.942,1.942,0,0,0-1.619.177,1.9,1.9,0,0,0-.912,1.324,111.1,111.1,0,0,1-4.194,16.65A1.942,1.942,0,0,0,6.246,65.66,110.944,110.944,0,0,1,27.2,71.4a1.832,1.832,0,1,1-1.31,3.422,107.28,107.28,0,0,0-20.211-5.5,5.584,5.584,0,0,1-3.855-2.641Z" transform="translate(653 3297.423)" fill="#29b965"/>
    <path id="Path_18798" data-name="Path 18798" d="M46.286,14.589A7.115,7.115,0,0,1,44.616,28.6h0a7,7,0,0,1-4.79-1.839c-.419,2.207-.736,4.311-1.023,6.364a1.832,1.832,0,0,1-1.81,1.6h-.235a1.832,1.832,0,0,1-1.589-2.075c.338-2.656.809-5.43,1.391-8.255a1.832,1.832,0,0,1,.287-.67,3,3,0,0,1,3.186-1.2l.243.059a3.024,3.024,0,0,1,1.619,1.052,3.362,3.362,0,0,0,2.722,1.31h0a3.451,3.451,0,0,0,.795-6.806,3.384,3.384,0,0,0-2.148.177,3.031,3.031,0,0,1-1.928.162l-.243-.059a3,3,0,0,1-2.207-2.568,1.825,1.825,0,0,1,.066-.736c.368-1.229.736-2.443,1.14-3.613a1.942,1.942,0,0,0-.177-1.619,1.9,1.9,0,0,0-1.324-.912A111.1,111.1,0,0,1,21.94,4.774a1.942,1.942,0,0,0-2.524,1.472A110.928,110.928,0,0,1,13.677,27.2a1.832,1.832,0,1,1-3.422-1.31,107.273,107.273,0,0,0,5.5-20.211,5.6,5.6,0,0,1,7.3-4.363,107.42,107.42,0,0,0,16.1,4.054,5.606,5.606,0,0,1,4.363,7.291c-.206.625-.419,1.273-.618,1.92A6.96,6.96,0,0,1,46.286,14.589Z" transform="translate(650.593 3305.975)" fill="#29b965"/>
    <path id="Path_18799" data-name="Path 18799" d="M61.958,10.2a107.28,107.28,0,0,0,20.263,5.548,5.6,5.6,0,0,1,4.363,7.3,107.419,107.419,0,0,0-4.054,16.1,5.606,5.606,0,0,1-7.291,4.363l-1.92-.618a6.967,6.967,0,0,1,0,3.4,7.107,7.107,0,0,1-6.887,5.371,7.24,7.24,0,0,1-3.083-.692,7.069,7.069,0,0,1-2.207-11.147c-2.207-.419-4.311-.736-6.364-1.023a1.833,1.833,0,0,1,.478-3.635c2.656.338,5.43.809,8.255,1.391a1.832,1.832,0,0,1,.67.287,3,3,0,0,1,1.2,3.186l-.059.243a3.024,3.024,0,0,1-1.052,1.619,3.362,3.362,0,0,0-1.31,2.722,3.451,3.451,0,0,0,6.806.795,3.384,3.384,0,0,0-.177-2.148,3.031,3.031,0,0,1-.162-1.928l.059-.243a3,3,0,0,1,2.568-2.207,1.825,1.825,0,0,1,.736.066c1.229.368,2.443.736,3.613,1.14a1.942,1.942,0,0,0,1.619-.177,1.9,1.9,0,0,0,.912-1.324,111.1,111.1,0,0,1,4.194-16.65,1.942,1.942,0,0,0-1.471-2.524A110.944,110.944,0,0,1,60.7,13.677a1.832,1.832,0,1,1,1.31-3.422Z" transform="translate(639.217 3303.568)" fill="#29b965"/>
    <path id="Path_18800" data-name="Path 18800" d="M46.471,78.964a111.1,111.1,0,0,1,16.65,4.194,1.942,1.942,0,0,0,2.524-1.472,110.928,110.928,0,0,1,5.739-20.954,1.832,1.832,0,1,1,3.422,1.31A107.273,107.273,0,0,0,69.257,82.3a5.6,5.6,0,0,1-7.3,4.363,107.417,107.417,0,0,0-16.1-4.054A5.606,5.606,0,0,1,41.5,75.322c.206-.625.419-1.273.618-1.92a6.968,6.968,0,0,1-3.4,0,7.115,7.115,0,0,1,1.678-14.06h0a7,7,0,0,1,4.79,1.839c.419-2.207.736-4.311,1.023-6.364a1.832,1.832,0,0,1,3.627.464c-.338,2.656-.809,5.43-1.391,8.255a1.832,1.832,0,0,1-.287.67,3,3,0,0,1-3.186,1.2l-.243-.059a3.024,3.024,0,0,1-1.619-1.052A3.362,3.362,0,0,0,40.394,63h0A3.451,3.451,0,0,0,39.6,69.8a3.385,3.385,0,0,0,2.148-.177,3.031,3.031,0,0,1,1.928-.162l.243.059a3,3,0,0,1,2.207,2.568,1.825,1.825,0,0,1-.066.736c-.368,1.229-.736,2.443-1.14,3.613a1.942,1.942,0,0,0,.177,1.619A1.9,1.9,0,0,0,46.471,78.964Z" transform="translate(644.515 3292.153)" fill="#29b965"/>
  </g>
</svg>
