<svg xmlns="http://www.w3.org/2000/svg" width="73.253" height="67.451" viewBox="0 0 73.253 67.451">
  <g id="Group_9363" data-name="Group 9363" transform="translate(-0.3 -4.1)">
    <path id="Path_18801" data-name="Path 18801" d="M61.279,5h-48.7A11.338,11.338,0,0,0,1.2,16.3V46.757a11.273,11.273,0,0,0,11.3,11.3H31.583l-8.55,8.092a2.56,2.56,0,0,0-.153,3.664,2.733,2.733,0,0,0,1.908.84,2.548,2.548,0,0,0,1.756-.687l10.382-9.771,10.382,9.542a2.69,2.69,0,0,0,1.756.687,2.449,2.449,0,0,0,1.908-.84,2.5,2.5,0,0,0-.153-3.664l-8.55-7.863H61.355a11.273,11.273,0,0,0,11.3-11.3V16.222A11.322,11.322,0,0,0,61.279,5Zm6.107,41.757a6.076,6.076,0,0,1-6.107,6.107h-48.7a6.076,6.076,0,0,1-6.107-6.107V16.3a6.076,6.076,0,0,1,6.107-6.107H61.355A6.076,6.076,0,0,1,67.462,16.3V46.757Z" fill="#29b965" stroke="#fff" stroke-width="1.8"/>
    <path id="Path_18802" data-name="Path 18802" d="M63.336,36.294H51.961V25a2.574,2.574,0,0,0-2.6-2.6A16.518,16.518,0,1,0,65.931,38.966,2.64,2.64,0,0,0,63.336,36.294ZM57.381,46.9A11.336,11.336,0,0,1,41.35,30.874,10.84,10.84,0,0,1,46.77,27.9V38.889a2.574,2.574,0,0,0,2.6,2.6H60.358A11.894,11.894,0,0,1,57.381,46.9Z" transform="translate(-7.477 -4.117)" fill="#29b965" stroke="#fff" stroke-width="1.8"/>
    <path id="Path_18803" data-name="Path 18803" d="M63.5,12.8a2.574,2.574,0,0,0-2.6,2.6V29.289a2.574,2.574,0,0,0,2.6,2.6H77.389a2.574,2.574,0,0,0,2.6-2.6A16.4,16.4,0,0,0,75.1,17.609,15.731,15.731,0,0,0,63.5,12.8Zm2.6,13.817v-8.4a11.581,11.581,0,0,1,5.42,2.977,10.84,10.84,0,0,1,2.977,5.42Z" transform="translate(-14.126 -1.846)" fill="#29b965" stroke="#fff" stroke-width="1.8"/>
    <path id="Path_18804" data-name="Path 18804" d="M23.036,43.2H12.2a2.6,2.6,0,0,0,0,5.191H23.112a2.6,2.6,0,1,0-.076-5.191Z" transform="translate(-1.988 -9.038)" fill="#29b965" stroke="#fff" stroke-width="1.8"/>
    <path id="Path_18805" data-name="Path 18805" d="M23.036,34.3H12.2a2.6,2.6,0,1,0,0,5.191H23.112a2.6,2.6,0,1,0-.076-5.191Z" transform="translate(-1.988 -6.933)" fill="#29b965" stroke="#fff" stroke-width="1.8"/>
    <path id="Path_18806" data-name="Path 18806" d="M18.455,52H12.2a2.6,2.6,0,0,0,0,5.191h6.26a2.6,2.6,0,0,0,0-5.191Z" transform="translate(-1.988 -11.121)" fill="#29b965" stroke="#fff" stroke-width="1.8"/>
  </g>
</svg>
